<svg width="13" height="12" viewBox="0 0 13 12" fill="none" xmlns="http://www.w3.org/2000/svg">
<path d="M12.75 0H0.25C0.111929 0 0 0.111929 0 0.25C0 0.388071 0.111929 0.5 0.25 0.5H12.75C12.8881 0.5 13 0.388071 13 0.25C13 0.111929 12.8881 0 12.75 0Z" fill="black"/>
<path d="M12.75 5.5H0.25C0.111929 5.5 0 5.61193 0 5.75C0 5.88807 0.111929 6 0.25 6H12.75C12.8881 6 13 5.88807 13 5.75C13 5.61193 12.8881 5.5 12.75 5.5Z" fill="black"/>
<path d="M12.75 11H0.25C0.111929 11 0 11.1119 0 11.25C0 11.3881 0.111929 11.5 0.25 11.5H12.75C12.8881 11.5 13 11.3881 13 11.25C13 11.1119 12.8881 11 12.75 11Z" fill="black"/>
</svg>
